<?xml version="1.0" encoding="UTF-8"?>
<svg id="_レイヤー_2" data-name="レイヤー_2" xmlns="http://www.w3.org/2000/svg" viewBox="0 0 2153.6 873.26">
  <defs>
    <style>
      .cls-1 {
        fill: #fff;
      }
    </style>
  </defs>
  <g id="_レイヤー_1-2" data-name="レイヤー_1">
    <g>
      <path class="cls-1" d="M495.46,783.97c.75,7.93-.1,12.83-2.55,14.73-2.46,1.89-9.54,1.5-21.24-1.13-21.9-4.53-41.54-8.12-58.91-10.76-17.37-2.65-32.85-4.34-46.45-5.1-13.59-.75-25.77-.57-36.53.57-10.76,1.13-20.67,3.02-29.74,5.66-3.4,7.55-6.51,11.61-9.35,12.18-2.83.57-5.76-2.18-8.78-8.21-11.71,1.5-23.32,3.4-34.83,5.66-11.52,2.27-22.19,5.1-32,8.5-10.58,3.02-19.45,5-26.62,5.95-7.18.94-13.41.65-18.69-.85-5.29-1.51-10.01-4.35-14.16-8.5-4.16-4.16-8.12-9.63-11.89-16.43-3.03-6.04-4.16-9.81-3.4-11.33.75-1.5,4.72-2.27,11.9-2.27,9.43.38,24.16-1.04,44.18-4.25,20.01-3.2,44.55-8.02,73.63-14.44-1.89-9.43-4.25-17.84-7.08-25.21-2.83-7.36-5.95-14.44-9.35-21.24-7.56,1.89-15.58,4.06-24.07,6.51-8.5,2.46-16.52,5.58-24.07,9.35-3.4,7.18-7.56,11.04-12.46,11.61-4.91.57-7.93-2.92-9.06-10.48-1.51-10.2-3.21-18.12-5.1-23.79-1.89-5.66-3.59-10.1-5.1-13.31-1.51-3.2-2.74-5.95-3.68-8.21-.95-2.27-1.04-5.1-.28-8.5,2.27-13.21,2.17-25.29-.28-36.25-2.46-10.95-7.46-19.63-15.01-26.05-3.03,6.05-7.27,13.79-12.74,23.22-5.48,9.44-10.86,18.51-16.14,27.19-.38,17.75-.57,36.91-.57,57.49s1.5,39.37,4.53,56.36c1.88,12.08,2.35,21.99,1.42,29.74-.95,7.73-1.8,15.95-2.55,24.64-.76,5.66-2.55,9.15-5.38,10.48-2.83,1.32-6.51-1.23-11.05-7.65-4.16-6.04-7.56-11.71-10.2-16.99-2.65-5.29-4.63-10.58-5.95-15.86-1.33-5.29-2.18-10.86-2.55-16.71-.38-5.85-.57-12.74-.57-20.67.37-10.57.37-19.44,0-26.62-.38-7.17-1.13-15.86-2.27-26.05-4.53,4.91-9.82,10.96-15.86,18.12-6.04,7.18-11.71,13.59-16.99,19.26-7.18,9.06-13.79,11.24-19.82,6.51-6.04-4.72-10.76-13.68-14.16-26.9-1.89-6.8-1.89-12.55,0-17.28,1.89-4.72,6.23-10.48,13.03-17.28,18.12-18.13,31.72-34.36,40.78-48.71,9.06-14.35,14.16-29.83,15.29-46.45-9.44,6.8-17.28,11.33-23.51,13.59-6.23,2.27-11.61,3.03-16.14,2.27-7.93-1.13-15.39-4.72-22.37-10.76-6.99-6.04-15.96-16.23-26.9-30.59-3.03-3.4-4.25-5.66-3.68-6.8.57-1.13,2.55-2.07,5.95-2.83,10.2-1.5,24.16-5.47,41.91-11.89,17.74-6.42,36.06-14.35,54.94-23.79.37-4.15.75-9.53,1.13-16.14.37-6.6.75-13.31,1.13-20.11.37-6.8.75-13.21,1.13-19.26.37-6.04.75-10.57,1.13-13.59,1.5-10.2,1.98-18.97,1.42-26.34s-2.18-15.01-4.81-22.94c-.76-3.4.75-5.66,4.53-6.8,3.77-1.13,7.55.19,11.33,3.96,7.17,7.56,13.12,13.88,17.84,18.98,4.72,5.1,8.21,9.63,10.48,13.59,2.27,3.97,3.4,7.56,3.4,10.76s-.76,6.71-2.27,10.48c-1.13,2.27-2.18,5.76-3.12,10.48-.95,4.73-1.7,9.73-2.27,15.01-.57,5.29-1.13,10.48-1.7,15.58-.57,5.1-1.04,8.97-1.42,11.61,14.35,4.91,22.75,11.61,25.21,20.11,2.45,8.5-.1,15.2-7.65,20.11-3.4,2.27-7.18,5.48-11.33,9.63-4.16,4.16-7.56,8.12-10.2,11.89-1.13,9.82.57,17.56,5.1,23.22,9.06-8.68,18.69-19.82,28.89-33.42,10.2-13.59,19.82-29.26,28.89-47.01-1.13,10.2-3.88,20.59-8.21,31.15-4.35,10.58-8.78,19.07-13.31,25.49-3.78,5.29-7.56,11.04-11.33,17.28-3.78,6.23-7.36,12.18-10.76,17.84,5.28,1.13,10.48,2.55,15.58,4.25s9.15,3.5,12.18,5.38c5.28-1.88,11.23-4.72,17.84-8.5,6.6-3.77,12.55-7.73,17.84-11.89,5.28-3.77,10.38-6.6,15.29-8.5,4.9-1.88,9.91-2.55,15.01-1.98,5.1.57,10.57,2.65,16.43,6.23,5.85,3.59,12.55,8.78,20.11,15.58,0-8.3-.38-15.58-1.13-21.81-.76-6.23-1.89-11.8-3.4-16.71-1.51-4.9-3.5-9.25-5.95-13.03-2.46-3.77-5.58-7.55-9.35-11.33-9.06-8.3-12.28-14.63-9.63-18.97,2.64-4.34,12.08-4.62,28.32-.85,19.63-23.03,33.6-42.95,41.91-59.76,8.3-16.8,10.76-28.22,7.36-34.27-1.89-3.77-4.53-4.34-7.93-1.7-12.46,10.2-25.21,21.05-38.23,32.57-13.03,11.52-24.83,22.37-35.4,32.57-7.18,6.8-13.12,11.89-17.84,15.29-4.73,3.4-8.78,4.81-12.18,4.25-3.4-.57-6.23-3.12-8.5-7.65-2.27-4.53-4.53-11.33-6.8-20.39-2.27-6.8-3.21-13.97-2.83-21.52.37-7.55,3.02-13.4,7.93-17.56,1.5-1.5,2.64-3.87,3.4-7.08.75-3.2,1.32-6.13,1.7-8.78.75-4.15,2.83-5.38,6.23-3.68,3.4,1.7,9.43,6.71,18.12,15.01,3.02,3.03,5.57,4.53,7.65,4.53s5.75-1.13,11.04-3.4c18.88-8.3,33.14-15.1,42.76-20.39,9.63-5.28,16.33-10,20.11-14.16,4.15-5.66,11.05-8.78,20.67-9.35,9.63-.57,18.78,2.36,27.47,8.78,7.17,5.29,12.83,10.96,16.99,16.99,4.15,6.04,6.8,11.89,7.93,17.56s.85,10.67-.85,15.01c-1.7,4.35-4.81,7.46-9.35,9.35-1.13.38-4.25,2.93-9.35,7.65-5.1,4.73-11.14,10.76-18.13,18.12-6.99,7.36-14.73,15.77-23.22,25.21-8.5,9.44-16.71,18.89-24.64,28.32,3.02,5.29,5.19,12.09,6.51,20.39,1.32,8.31,2.55,16.43,3.68,24.36,9.06-4.53,19.16-10.1,30.3-16.71,11.13-6.6,20.67-12.55,28.6-17.84,4.15-2.64,7.55-4.81,10.2-6.51,2.64-1.7,5.1-2.64,7.36-2.83,2.27-.19,4.72.1,7.36.85,2.64.76,6.04,2.27,10.2,4.53,7.17,3.78,13.4,7.84,18.69,12.18,5.28,4.34,7.55,8.97,6.8,13.88-2.65,14.73-5.76,27.57-9.35,38.52-3.59,10.96-7.28,20.77-11.05,29.45,7.17,2.65,13.88,6.8,20.11,12.46s10.48,13.98,12.74,24.92c1.5,8.69-.95,12.09-7.36,10.2-8.31-3.02-15.77-5.75-22.37-8.21-6.61-2.45-13.88-5.19-21.81-8.21-7.56,7.93-14.36,14.54-20.39,19.82-6.05,5.29-12.18,9.35-18.41,12.18-6.23,2.83-12.94,4.63-20.11,5.38-7.18.76-15.86.57-26.05-.57-.76,7.18-1.7,13.31-2.83,18.41-1.13,5.1-2.27,10.86-3.4,17.28,21.52-1.5,39.37-2.83,53.53-3.97,14.16-1.13,26.52-1.79,37.1-1.98,10.57-.19,20.01,0,28.32.57,8.3.57,16.99,1.61,26.05,3.12,12.83,2.27,22.46,6.89,28.89,13.88,6.42,6.99,10,15.01,10.76,24.07ZM239.44,656.52c1.89-10.95,2.45-19.06,1.7-24.36-.76-5.28-3.78-6.42-9.06-3.4-4.16,3.03-8.97,5.86-14.44,8.5-5.48,2.65-10.48,4.35-15.01,5.1.37,1.89.94,4.53,1.7,7.93.75,3.4,1.32,7.08,1.7,11.04.37,3.97.75,7.84,1.13,11.61.37,3.78.57,6.99.57,9.63,10.2-4.53,17.84-8.68,22.94-12.46,5.1-3.77,8.02-8.3,8.78-13.59ZM286.46,641.23c-4.53,4.91-8.41,11.52-11.61,19.82-3.21,8.31-4.81,15.67-4.81,22.09,0,5.66-.85,10.2-2.55,13.59-1.7,3.4-5.2,6.8-10.48,10.2,5.66,4.53,10.2,8.03,13.59,10.48,3.4,2.46,5.95,4.06,7.65,4.81,1.7.76,2.92.66,3.68-.28.75-.94,1.32-2.55,1.7-4.81.75-6.8,1.42-13.12,1.98-18.98.57-5.85.94-11.61,1.13-17.28.19-5.66.28-11.7.28-18.13s-.19-13.59-.57-21.52ZM366.89,662.75c-19.64-7.17-34.93-9.63-45.88-7.36-1.13,5.66-1.89,11.81-2.27,18.41-.38,6.61-.95,13.51-1.7,20.67,10.95-.75,20.11-3.77,27.47-9.06,7.36-5.28,14.82-12.83,22.37-22.66ZM396.34,582.89c1.5-6.42.94-9.81-1.7-10.2-2.65-.37-4.91,1.13-6.8,4.53-6.8,11.33-16.43,19.26-28.89,23.79-12.46,4.53-24.74,4.73-36.82.57.37,5.66.57,10.96.57,15.86s-.38,10.01-1.13,15.29c9.82-1.13,19.91-1.13,30.3,0,10.38,1.13,20.29,2.65,29.74,4.53,3.77-12.08,6.7-21.99,8.78-29.74,2.07-7.73,4.05-15.95,5.95-24.64Z"/>
      <path class="cls-1" d="M1037.52,755.65c0,13.22-5.29,22-15.86,26.34-10.58,4.34-28.7,1.6-54.38-8.21-5.29-1.89-12.56-3.68-21.81-5.38-9.26-1.7-19.92-3.02-32-3.96-12.09-.94-25.21-1.6-39.37-1.98-14.16-.37-28.42-.19-42.76.57-2.65,4.53-6.42,8.03-11.33,10.48-4.91,2.46-10.2,3.96-15.86,4.53-5.66.57-11.24.1-16.71-1.42-5.48-1.5-9.91-3.77-13.31-6.8-6.43.76-13.97,2.27-22.66,4.53-8.69,2.27-17.75,4.91-27.19,7.93-9.44,3.02-18.51,6.32-27.19,9.91-8.69,3.58-16.24,7.08-22.66,10.48-11.71,6.42-21.34,8.02-28.89,4.81-7.56-3.21-14.92-14.44-22.09-33.7-3.03-7.55-4.91-13.4-5.66-17.56-.76-4.15-.66-7.27.28-9.35.94-2.07,2.55-3.49,4.81-4.25,2.27-.75,5.1-1.7,8.5-2.83,4.15-1.13,8.02-2.35,11.61-3.68,3.58-1.32,7.17-2.92,10.76-4.81,3.58-1.89,7.65-4.34,12.18-7.36,4.53-3.02,9.81-6.8,15.86-11.33,12.08-9.43,26.05-20.2,41.91-32.29,15.86-12.08,32.85-25.11,50.98-39.08.37-24.16.28-47.1-.28-68.82-.57-21.71-1.61-41.25-3.12-58.62-1.51-17.36-3.5-32.19-5.95-44.46-2.46-12.27-5.01-21.24-7.65-26.9-6.42-11.33-7.84-19.54-4.25-24.64,3.58-5.1,11.23-6.7,22.94-4.81,12.83,1.89,23.59,6.14,32.29,12.74,8.68,6.61,15.76,14.44,21.24,23.51,5.47,9.06,9.43,18.89,11.9,29.45,2.45,10.58,4.05,20.77,4.81,30.59,2.64-.37,6.13-.94,10.48-1.7,4.34-.75,8.78-1.5,13.31-2.27,4.53-.75,8.68-1.5,12.46-2.27,3.77-.75,6.6-1.5,8.5-2.27,4.9-2.27,10.85-3.58,17.84-3.96,6.98-.37,13.88.28,20.67,1.98,6.8,1.7,12.93,4.25,18.41,7.65,5.47,3.4,9.35,7.56,11.61,12.46,5.28,10.96,6.23,19.45,2.83,25.49-3.4,6.04-9.63,9.44-18.69,10.2-4.53.38-11.52,1.8-20.96,4.25-9.44,2.46-19.45,5.48-30.02,9.06-10.58,3.59-20.87,7.65-30.87,12.18-10.01,4.53-18.04,9.06-24.07,13.59-1.13,6.04-2.27,14.16-3.4,24.36-1.13,10.2-2.08,21.15-2.83,32.85-.76,11.71-1.23,23.42-1.42,35.12-.19,11.71.09,21.9.85,30.59,28.69-3.02,51.83-5.19,69.39-6.51,17.56-1.32,31.44-2.07,41.63-2.27,10.2-.19,17.74,0,22.66.57,4.9.57,9.43,1.23,13.59,1.98,9.43,1.51,17.84,3.97,25.21,7.36,7.36,3.4,13.5,7.27,18.41,11.61,4.9,4.35,8.68,8.88,11.33,13.59,2.64,4.73,3.96,8.97,3.96,12.74ZM774.14,657.66c-10.96,7.56-22.57,15.49-34.83,23.79-12.27,8.31-24.36,16.34-36.25,24.07-11.9,7.74-23.04,14.92-33.42,21.52-10.39,6.61-18.97,11.81-25.77,15.58-3.03,1.89-3.88,3.68-2.55,5.38,1.32,1.7,4.05,1.8,8.21.28,18.13-5.28,37.1-9.91,56.92-13.88,19.82-3.96,40.5-7.45,62.02-10.48,1.5-10.57,2.64-21.52,3.4-32.85.75-11.33,1.5-22.46,2.27-33.42Z"/>
      <path class="cls-1" d="M1605.64,585.16c3.02,4.16,4.43,9.82,4.25,16.99-.19,7.18-1.8,12.66-4.81,16.43-2.27,3.03-4.53,7.18-6.8,12.46-2.27,5.29-3.78,9.26-4.53,11.89-1.13,4.53-3.03,8.97-5.66,13.31-2.65,4.34-5.1,7.46-7.36,9.35-4.53,3.4-7.65,6.71-9.35,9.91-1.7,3.21-2.74,6.89-3.11,11.05,3.02,1.13,5.66,3.21,7.93,6.23,2.27,3.03,3.87,6.33,4.82,9.91.94,3.59,1.13,6.99.57,10.2-.57,3.21-1.98,5.58-4.25,7.08-4.16,3.03-8.31,4.81-12.46,5.38-4.16.57-10.58.28-19.26-.85-15.86-1.88-29.93-2.07-42.2-.57-12.27,1.51-22.94,6.04-32,13.59-2.27,9.44-5.48,14.64-9.63,15.58-4.16.95-9.44-.85-15.86-5.38-7.18-4.9-13.59-12.46-19.26-22.66-5.66-10.2-9.06-20.01-10.2-29.45-2.27-19.26-4.81-35.77-7.65-49.56-2.83-13.78-5.76-23.51-8.78-29.17-12.09,20.39-25.59,39.28-40.5,56.64-14.92,17.37-29.36,31.72-43.33,43.05-.38,11.33-.19,21.44.57,30.3.75,8.88,2.07,19.17,3.96,30.87,1.89,10.95,3.3,22.09,4.25,33.42.94,11.33,1.22,19.06.85,23.22-.38,4.15-1.98,5.95-4.81,5.38-2.83-.57-6.51-3.88-11.05-9.91-12.09-15.86-19.54-28.13-22.37-36.82-2.83-8.69-3.31-14.73-1.42-18.12,1.13-1.88,1.79-4.9,1.98-9.06.19-4.15-.1-12.65-.85-25.49-11.71,9.06-21.52,16.71-29.45,22.94-7.93,6.23-12.84,10.29-14.73,12.18-3.03,3.03-6.51,1.98-10.48-3.11-3.97-5.1-6.33-15.58-7.08-31.44-.38-9.81.19-18.03,1.7-24.64,1.5-6.6,4.15-10.28,7.93-11.05,10.2-2.27,19.06-5.85,26.62-10.76,7.55-4.9,15.66-12.83,24.36-23.79.37-8.68.75-17.36,1.13-26.05.37-8.68.94-19.26,1.7-31.72-19.26,19.26-36.91,32.1-52.96,38.52-16.05,6.43-28.42,7.36-37.1,2.83-6.43-3.4-13.51-8.02-21.24-13.88-7.74-5.85-13.12-11.42-16.14-16.71-5.29-8.3-9.54-15.48-12.74-21.52-3.21-6.04-5.66-11.33-7.36-15.86-1.7-4.53-2.65-8.68-2.83-12.46-.19-3.77.09-7.55.85-11.33,1.5,5.66,4.25,10.96,8.21,15.86,3.96,4.91,11.04,11.71,21.24,20.39,3.02,2.27,6.42,3.59,10.2,3.96,3.77.38,10-1.42,18.69-5.38,8.68-3.97,20.86-10.48,36.53-19.54,15.66-9.06,36.91-21.71,63.72-37.95,1.13-10.57,2.07-19.06,2.83-25.49.75-6.42,1.5-11.61,2.27-15.58.75-3.96,1.79-6.98,3.12-9.06,1.32-2.07,2.92-4.25,4.81-6.51,4.53-4.9,7.93-7.55,10.2-7.93,2.27-.37,4.9,1.33,7.93,5.1,4.9,5.29,9.15,11.04,12.74,17.28,3.58,6.23,5.75,13.12,6.51,20.67,7.55-2.27,13.59-1.42,18.12,2.55,4.53,3.96,6.98,9.54,7.36,16.71.37,7.93-2.83,13.03-9.63,15.29-7.18,2.65-12.66,5.01-16.43,7.08-3.78,2.08-7.18,4.63-10.2,7.65-2.27,4.16-3.78,7.93-4.53,11.33-.76,3.4-1.33,6.99-1.7,10.76,10.95,6.42,17.36,13.31,19.26,20.67,1.88,7.36-.19,18.79-6.23,34.27,10.2-7.55,18.78-14.53,25.77-20.96,6.98-6.42,13.88-13.97,20.67-22.66-1.89-4.15-2.93-8.21-3.12-12.18-.19-3.97,1.79-7.45,5.95-10.48,1.5-1.13,3.12-1.6,4.81-1.42,1.7.19,4.05,1.42,7.08,3.68,3.02,2.27,6.89,5.95,11.61,11.05,4.72,5.1,10.85,11.99,18.41,20.67,9.81-10.95,19.44-20.01,28.89-27.19,9.43-7.17,19.63-12.27,30.59-15.29,5.66-1.89,11.89-4.43,18.69-7.65,6.8-3.2,11.13-5.95,13.03-8.21,1.13-1.5,3.3-2.83,6.51-3.96,3.2-1.13,6.7-1.89,10.48-2.27,3.77-.37,7.55-.47,11.33-.28,3.77.19,6.8.85,9.06,1.98,7.55,4.16,15.29,9.73,23.22,16.71,7.93,6.99,13.97,13.31,18.13,18.97ZM1398.33,426.56c3.4,5.66,4.53,10.67,3.4,15.01-1.13,4.35-5.86,8.21-14.16,11.61-15.86,6.8-27.19,10.76-33.98,11.9-6.8,1.13-12.46,1.33-16.99.57-4.53-.75-13.88.57-28.04,3.96-14.16,3.4-30.59,8.41-49.28,15.01-18.69,6.61-38.05,14.36-58.06,23.22-20.02,8.88-38.14,18.6-54.38,29.17,3.77-9.81,20.67-24.92,50.69-45.31,30.02-20.39,73.35-44.75,129.99-73.07,6.42-3.02,10.38-6.6,11.89-10.76,1.5-4.15.19-9.63-3.97-16.43-2.27-3.4-2.74-5.95-1.42-7.65,1.32-1.7,4.25-1.98,8.78-.85,12.83,3.03,23.69,8.31,32.57,15.86,8.87,7.56,16.51,16.81,22.94,27.75ZM1552.39,604.98c.75-4.9-.19-7.65-2.83-8.21-2.65-.57-5.48.1-8.5,1.98-4.53,2.65-10.39,5.58-17.56,8.78-7.18,3.21-13.41,5.76-18.69,7.65-4.16,1.13-8.78,3.03-13.88,5.66-5.1,2.65-10.2,5.38-15.29,8.21-5.1,2.83-9.63,5.58-13.59,8.21-3.97,2.65-6.51,4.73-7.65,6.23-.76,8.69.19,17.66,2.83,26.9,2.64,9.26,6.04,15.39,10.2,18.41,3.4,0,7.45-.57,12.18-1.7,4.72-1.13,9.63-2.55,14.73-4.25s10.1-3.68,15.01-5.95c4.9-2.27,9.25-4.53,13.03-6.8,4.53-4.15,8.5-8.97,11.9-14.44,3.4-5.47,6.42-11.13,9.06-16.99,2.64-5.85,4.62-11.7,5.95-17.56,1.32-5.85,2.35-11.23,3.12-16.14Z"/>
      <path class="cls-1" d="M2134.67,594.22c7.55,8.69,12.74,16.14,15.58,22.37,2.83,6.23,3.87,11.33,3.11,15.29-.76,3.96-2.93,6.71-6.51,8.21-3.59,1.51-8.21,1.89-13.88,1.13-11.33-1.89-23.6-3.58-36.82-5.1-13.22-1.5-26.34-2.83-39.37-3.96-13.03-1.13-25.59-2.07-37.67-2.83-12.09-.75-22.66-1.32-31.72-1.7-3.78,53.62-7.93,99.32-12.46,137.07-4.53,37.76-9.06,66.84-13.59,87.23-3.4,15.1-7.36,22.18-11.89,21.24-4.53-.95-7.93-11.04-10.2-30.3-1.51-11.71-2.93-25.4-4.25-41.07-1.33-15.67-2.27-32.66-2.83-50.98-.57-18.31-.95-37.38-1.13-57.21-.19-19.82.09-39.55.85-59.19-11.33,3.4-23.98,7.46-37.95,12.18-13.98,4.73-27.95,9.63-41.91,14.73-13.97,5.1-27.47,10.2-40.5,15.29s-24.07,9.73-33.14,13.88c-13.59,6.43-23.22,8.69-28.89,6.8-5.66-1.89-10.39-8.68-14.16-20.39-3.78-11.7-4.91-20.86-3.4-27.47,1.5-6.6,6.6-10.85,15.29-12.74,27.56-6.42,56.36-16.51,86.38-30.3,30.02-13.78,59.56-33.51,88.64-59.19-8.69,2.27-17.09,3.78-25.21,4.53-8.12.76-15.58.85-22.37.28-6.8-.57-12.46-1.5-16.99-2.83-4.53-1.32-7.56-3.12-9.06-5.38-2.27-2.64-4.16-6.04-5.66-10.2-1.51-4.15-2.46-8.5-2.83-13.03-.38-4.53-.19-8.87.57-13.03.75-4.15,2.07-7.36,3.96-9.63,8.68-10.95,12.93-21.61,12.74-32-.19-10.38-4.06-19.16-11.61-26.34-4.16-3.77-5.48-7.27-3.97-10.48,1.5-3.2,3.97-4.25,7.36-3.11,8.68,3.03,16.14,6.14,22.37,9.35,6.23,3.21,11.61,6.89,16.14,11.04,4.53,4.16,8.3,9.16,11.33,15.01,3.02,5.86,5.66,12.94,7.93,21.24,1.5,5.29,4.34,7.74,8.5,7.36,4.15-.37,11.7-2.64,22.66-6.8.75-35.49.75-61.83,0-79.01-.76-17.18-2.08-27.84-3.96-32-2.27-4.53-2.27-8.02,0-10.48,2.27-2.45,6.23-3.49,11.89-3.12,6.42.38,12.36,2.46,17.84,6.23,5.47,3.78,10.2,8.5,14.16,14.16,3.96,5.66,6.89,11.89,8.78,18.69,1.89,6.8,2.45,13.22,1.7,19.26-.76,6.42-1.23,14.16-1.42,23.22-.19,9.06.09,20.2.85,33.42,10.57-1.13,21.9-1.7,33.98-1.7,5.66,0,9.43,1.89,11.33,5.66,1.88,3.78,2.83,9.63,2.83,17.56,0,4.16-.57,7.28-1.7,9.35-1.13,2.08-4.73,5.01-10.76,8.78-6.04,3.78-11.81,7.36-17.28,10.76-5.48,3.4-11.43,7.56-17.84,12.46,0,7.93-.1,16.71-.28,26.34-.19,9.63-.28,19.36-.28,29.17,7.55,0,15.95-.09,25.21-.28,9.25-.19,18.78-.57,28.6-1.13,9.81-.57,19.54-1.42,29.17-2.55,9.63-1.13,18.41-2.45,26.34-3.96,5.66-1.13,10.28-1.79,13.88-1.98,3.58-.19,6.6.1,9.06.85,2.45.76,4.72,2.08,6.8,3.97,2.07,1.89,4.62,4.34,7.65,7.36ZM1791.42,631.04c-1.13-.37-3.11-.47-5.95-.28-2.83.19-5.95.66-9.35,1.42-3.4.76-6.71,1.8-9.91,3.11-3.21,1.33-5.38,2.55-6.51,3.68-3.78,3.03-3.68,4.53.28,4.53s14.44-4.15,31.44-12.46ZM1932.46,574.39c-4.53,2.65-10.67,5.86-18.41,9.63-7.74,3.78-16.14,7.74-25.21,11.89-9.06,4.16-18.41,8.31-28.04,12.46-9.63,4.16-18.41,7.93-26.34,11.33,7.17-1.5,15.1-3.2,23.79-5.1,8.68-1.88,17.36-3.87,26.05-5.95,8.68-2.07,17.08-3.97,25.21-5.66,8.12-1.7,15.38-3.12,21.81-4.25.37-3.02.65-6.6.85-10.76.19-4.15.28-8.68.28-13.59Z"/>
    </g>
    <g>
      <path class="cls-1" d="M900.26,218.82c-.94,4.07-3.44,6.57-7.2,7.82-3.75.31-7.2,1.56-10.01,3.44-3.13,1.88-5.94,3.44-9.07,5.01-4.69,2.19-9.39,2.19-14.08,0-2.19-.63-4.38-.63-6.88-.31-6.57,2.5-13.14,5.01-19.71,7.82-.94,0-2.19,0-3.13.31.31-.94,1.25-1.88,1.88-2.82,1.25-.94,2.5-1.88,3.75-2.5,3.44-1.25,6.88-3.13,10.01-5.01,2.19-2.5,3.75-4.69,5.32-6.88-2.19-.31-4.07-.31-6.57-.63-5.32-.31-10.95-.94-16.58-1.56v.31h-7.51c-1.88,0-3.44.63-4.69,1.25-.94,2.19-.94,4.38-.31,6.88.31,2.19.94,4.38,1.88,6.57-2.19-.94-4.38-1.88-6.26-3.13-5.63-4.07-10.95-9.07-15.64-14.39-4.07-5.94-7.51-12.51-10.01-19.4-.94-1.88-1.56-3.75-1.56-5.94-.63-1.25-1.56-2.5-2.5-3.44-.94.94-1.88,1.88-2.82,3.13-.94,2.82-3.13,4.07-5.94,4.38-2.82.31-5.01-.94-6.88-3.13,0-.31-.31-.63-.94-.94-3.44,0-6.57-1.25-9.07-3.44-2.82-2.19-5.94-3.13-9.7-2.5-.94-.63-1.25-1.25-1.56-2.19.31-3.44.31-6.88,0-10.64-.31-1.56-1.25-2.5-2.19-3.13-4.69-3.13-6.88-1.88-6.57,3.75-1.56,13.14-2.82,26.59-4.38,40.36-.94,6.57-1.25,13.14-1.56,19.71-.63,4.38,0,8.76,1.25,13.14,1.56,4.07,3.44,8.13,5.63,11.89,2.82,3.44,2.19,5.63-2.19,6.57-.31,0-.63.31-.94.63-.94.63-2.19,1.56-3.75,2.19-1.25.63-2.5.31-3.44-.94s-1.56-2.5-2.19-3.75c-1.56-2.19-2.5-4.69-3.13-7.51-.31-2.82.31-5.32,2.19-7.51.31-1.25.31-2.5.31-3.75-1.25-15.64-1.88-31.29-2.19-46.93-.31-2.82-1.56-3.44-4.07-2.19-3.75,2.82-8.13,5.63-12.51,7.82-6.26,3.13-12.83,5.94-19.4,8.76-4.07,1.56-7.82,3.44-11.89,5.01-1.25.31-2.82.31-4.07.31-3.75.63-7.2.63-10.01-.63-2.5-.94-4.69-1.56-7.2-1.56s-4.69-.31-6.88-.31c-.63-1.56-.63-2.82,0-4.07,4.38-6.88,9.07-13.45,14.08-20.34.94-1.56,1.88-1.88,3.13-.31,2.5,2.5,4.69,2.19,6.88-.31l2.5-.63c.94.94,2.19,1.56,3.44.94,1.25-.31,2.5-.94,3.44-1.88,14.08-10.95,25.66-23.78,35.04-38.8.63-1.25.63-2.19.63-3.13-1.25-.31-2.19-1.25-3.13-1.88-1.25-.94-2.19-.94-3.44.31-3.44,4.07-7.51,7.51-12.2,10.01-8.13,4.07-15.96,7.82-23.78,11.26-4.69,2.82-9.39,2.82-14.08,0-2.19-.94-4.07-2.19-5.63-4.07-1.88-1.88-2.5-4.07-2.19-6.57.63-2.5,1.56-4.38,2.82-5.94,3.75-4.69,7.2-9.07,10.64-13.45.63-.94,1.56-1.56,2.5-1.56v2.5l-.63,3.44c.94,0,2.19,0,3.44-.31,15.02-6.26,27.53-15.96,37.86-28.78,3.13-3.75,3.75-7.82,2.19-11.89s-5.01-6.57-9.7-7.51c-1.88,0-3.44.31-5.01,1.25-7.82,6.57-16.58,10.95-26.59,13.14-2.5.94-4.69,1.25-6.88.94-1.56,0-3.13-.31-4.38-.94-1.56-.63-2.19-1.88-2.19-3.44.31-1.56.31-3.13.31-4.07,1.25-8.76,4.07-17.21,8.76-24.72,1.88-3.44,4.07-7.2,6.26-10.64,5.63-7.51,11.58-14.71,17.83-21.9,6.57-7.2,13.14-13.45,20.65-19.4,2.82-1.56,5.63-3.13,8.76-4.38,3.13-2.5,5.95-5.32,8.76-8.13,2.19-2.5,4.69-2.82,7.51-.63,5.63,4.69,11.58,8.76,17.52,12.51,5.95,4.69,10.95,10.01,15.02,16.27,1.88,4.07,2.19,7.82.63,11.89-1.56,3.75-4.38,6.57-8.45,8.13-9.07,2.19-16.58,7.2-22.53,14.39-.63,2.19-.31,4.69.63,6.88,1.25,2.19,2.5,4.07,4.07,5.94,3.44,2.82,7.2,5.95,10.64,9.39,2.82,4.07,5.63,8.45,8.13,13.14,1.88,2.82,1.56,5.01-1.88,6.57-3.13,1.25-6.26,2.5-9.07,4.38l-9.7,5.63c-3.75,2.19-4.07,5.32-.63,8.45,4.07,3.44,7.51,7.2,10.32,11.58.63,1.56.63,2.82,0,4.38-.31,1.25-.94,2.5-1.56,3.75-.63.94-.94,1.88-.63,2.82,0,.94.63,1.56,1.88,1.56,10.01,3.13,18.77,8.13,26.59,14.71.31.31.94.63,1.56.63,0-.63,0-1.25.31-1.56-1.25-8.45-1.88-16.58-1.88-24.72,0-15.02.94-30.04,2.19-45.05.94-3.75,2.5-7.2,4.69-10.64.63-.63,1.56-1.25,2.19-1.56.31.94.31,1.88.31,2.82-.31,18.46-.63,37.23-.31,56,.31,5.63,1.25,11.26,2.5,16.9,1.25,5.32,2.5,10.95,3.75,16.58,0,1.56.63,2.5,1.88,3.13.31-1.25.94-2.19,1.56-3.44.94-1.88,1.56-3.75,2.19-5.63.31-1.88,1.88-3.44,4.07-4.38.31,0,.63-.31.63-.63,7.82-10.01,15.33-20.34,22.84-30.35.63-1.25.94-2.82,1.25-4.07-1.25.31-2.5.63-3.75.94-2.82,1.25-5.63,2.5-8.45,3.75-5.63,1.88-10.01.31-13.77-3.75-1.25-1.25-2.5-2.19-3.44-3.75-.94-1.25-.94-2.5,0-4.07,1.25-1.88,2.82-3.75,4.69-5.01,7.2-8.76,14.71-17.52,22.21-26.28,1.25-2.5,2.5-4.38,3.75-6.57,5.01-5.63,10.95-7.2,18.15-4.69,17.52,2.82,32.85,10.64,45.68,23.15,4.38,4.07,7.51,8.76,10.01,14.39.94,2.19,1.25,4.69.31,7.51-.94,2.5-2.5,4.69-4.38,6.57-3.13,2.82-5.63,5.63-8.13,8.76-1.88,2.82-3.75,5.32-5.32,7.82-4.07,5.32-7.82,10.64-11.89,16.27-2.82,3.44-5.94,6.88-9.39,10.32,0,.94.31,1.56.94,2.5,4.07.31,7.51,1.25,10.95,3.13,3.44,1.88,6.88,4.07,10.32,5.94,5.63,3.13,10.64,6.88,15.33,11.58,2.82,3.44,3.75,6.88,2.82,10.95Z"/>
      <path class="cls-1" d="M1201.56,176.9c3.13,3.44,5.32,7.2,6.57,11.58.31,4.38-1.56,5.94-5.94,5.01-5.63-1.88-11.58-3.44-17.52-4.69l-5.32-3.13c-4.38-2.5-9.07-4.38-14.08-5.63-10.64-2.82-21.59-4.69-32.54-6.26-7.2-.63-14.39-.63-21.9,0-2.82,0-3.44,1.25-2.19,4.07.94,3.13,2.82,4.69,5.94,4.38,10.95.63,22.21,2.19,33.16,4.69,12.2,3.13,22.21,9.7,30.35,19.4,5.94,6.57,11.58,13.45,16.9,20.34.94.94,1.56,2.19,1.56,3.75.31,1.88.63,3.75.94,5.63.31,1.88,0,3.75-1.25,5.63-1.56.94-3.44,1.56-5.32,1.25-1.88,0-3.75-.31-5.63-.31-6.57-1.56-13.14-3.44-19.71-5.63-.94.31-2.19.31-3.75.31s-3.13-.63-4.69-1.56c-.94-.63-1.88-.94-3.13-1.25-4.69.63-9.07,1.25-13.77,1.25-.94,0-1.56-.31-1.88-.31.31-.63.31-1.56.94-2.19,2.82-.94,5.63-1.88,8.45-2.5.63,0,1.25-.31,1.88-.31-.31-.94-.94-1.25-1.88-1.56-4.07,0-8.13,0-12.2.31-6.88,1.25-13.77,2.82-20.02,4.38h-.94c.31-.31.63-.63,1.25-.63l22.53-9.39c.63-.31,1.25-.94,2.5-1.56h-3.44c-3.75,1.25-7.51,2.19-11.26,3.44h-1.56c.31-.31.94-.63,1.25-.94,2.5-1.88,5.32-3.44,8.13-5.01.31-.63.63-.94,1.25-.94-.63-.31-.94-.63-1.56-.63-1.25.63-2.82.94-4.07.94l-2.82.94c0-1.25.63-2.5,1.25-3.44,2.82-2.82,5.63-5.94,8.13-9.07,2.5-2.5,2.5-4.07-.94-4.69-.94-.31-1.25-.94-1.56-1.56-4.38-5.01-9.7-8.45-15.96-10.32l-7.82-3.75c-1.88-1.25-3.13-.94-3.13,1.56-.63,9.07-1.25,17.83-2.19,26.91.63,5.94,1.25,12.2,1.88,18.15.94,4.38.94,8.76.63,13.14-.63,4.69-2.19,8.76-4.69,12.51-1.25,1.56-1.88,3.44-2.82,5.32-.63,1.88-1.88,3.44-3.44,4.69-3.75,2.5-7.51,5.01-11.26,7.82-.94.31-1.88.31-2.82,0-2.5-1.25-4.38-3.44-5.94-5.63-4.69-7.2-10.32-13.77-16.27-19.71-6.26-5.94-12.2-11.89-18.15-18.15-.63-.31-1.88-.63-3.13-.63-7.82,1.56-15.02,5.01-21.9,9.7-2.5,1.25-5.01,1.88-7.51,2.5-5.63,1.25-11.26,2.19-16.89,3.44-2.5.63-4.69-.31-5.95-2.5-1.56-2.19-3.44-4.07-5.63-5.32-.63-.31-.94-1.25-1.25-2.19,2.82-3.75,5.63-7.51,8.45-11.26,6.57-6.88,13.14-13.14,20.02-19.4.94-.63,2.19-1.25,3.44-1.25-.63.94-1.25,1.88-1.56,2.82-1.25,2.82-1.88,5.94-2.5,9.07.31,1.25.94,1.88,2.5,2.5,5.32-1.88,10.64-4.38,15.96-7.2v-.94c0-.63-.31-1.25-.31-1.56-3.13-4.07-5.94-8.45-9.07-12.2,0-.31-.31-.94-.63-1.56.63,0,.94.31,1.56.63,4.07,3.44,7.51,7.2,10.64,10.64,1.25,1.88,2.82,2.5,4.69,1.56,13.45-8.76,26.91-17.21,40.67-25.34l1.88-1.88c0-.94.31-1.88.31-2.82-.94-.31-1.56-.31-2.19.31-8.45,4.07-17.52,6.88-26.91,8.76-5.01.31-10.01.63-15.02.94-11.58.94-22.21,4.69-31.91,11.58-8.76,4.69-17.52,9.07-26.59,13.14-2.5.94-5.01.63-7.2-.94-2.19-1.25-4.07-2.82-5.32-5.32-.63-.94-1.25-1.88-1.88-3.13-.31-.94-.63-2.5-.31-3.75,2.19-4.07,5.01-7.51,8.76-10.32.94-.63,1.88-.63,2.82-.31,1.25.31,2.19.31,3.44,0,10.95-2.5,21.9-5.01,32.85-7.82,11.26-2.19,22.21-4.69,33.16-7.82,5.94-.94,11.58-2.19,16.9-3.44.63-.63.94-1.25.94-1.88-5.32-11.58-8.45-23.47-9.7-35.98-1.25-12.83-2.19-25.66-3.13-38.48,0-6.88.63-13.77,1.56-20.34-.31-2.5-.63-5.01-.31-7.82.31-4.69,1.25-9.07,2.82-13.45,4.07-10.95,8.76-21.59,14.08-32.23,1.25-3.13,3.13-5.63,5.63-7.51,6.26-4.69,12.51-9.39,19.4-13.77,2.5-.94,5.32-.94,8.13-.31,9.07,3.44,16.9,8.45,23.47,15.33,2.82,3.44,5.32,6.88,6.88,10.95.63,3.44-.31,6.57-2.5,9.39-6.57,5.94-13.77,11.26-21.28,16.58-.31.63-.63.94-1.25,1.25.63.31.94.31,1.56.31,1.56,0,3.44,0,5.01.31,6.26,3.75,11.89,8.13,16.9,13.14,1.56,2.5,2.82,5.01,3.44,8.13.63,2.82,1.25,5.63,1.88,8.45.31,1.25.63,2.82.63,4.38l3.75-2.5c4.07-3.13,7.82-6.26,11.58-9.39,1.25-1.25,2.19-2.82,3.13-4.38-2.19-.94-4.69-1.88-7.2-2.5-2.5.31-4.69.63-6.88.94-.31-.31-.94-.94-1.56-1.25l1.25-1.25c5.94-2.19,11.89-4.38,18.15-5.94,4.07-1.25,7.82-2.19,11.89-3.44,10.64-1.88,18.46,1.88,23.47,11.26,2.19,4.69,3.75,9.39,5.63,13.77.31,1.56.31,3.13-.31,4.69-2.5,1.56-5.01,2.82-7.82,4.07-1.88.31-3.44.63-5.01.94-7.51,1.88-15.02,3.75-22.21,5.63h-3.13c-1.56-.31-3.13,0-4.38.63-.31,1.25-.31,2.82,0,4.07.94,1.88,1.88,3.13,3.13,4.38,7.51,5.94,15.96,9.07,25.66,9.7,4.07.63,7.82,2.19,11.26,4.69,8.45,6.57,14.39,15.02,18.15,24.72,0,1.56-.31,2.82-1.56,3.75s-2.5,1.56-3.75,1.56c-5.63-.63-10.95-.63-16.58-.31-5.32.31-10.95.31-16.58,0-5.63-.63-10.95-.31-16.27,1.25-4.07,1.25-7.82,1.88-11.26,2.5-6.26.94-12.2,1.88-18.15,2.5-4.38,1.25-9.07,2.82-13.77,4.38-2.5.31-5.01.63-7.2.94-.94,0-1.56.63-2.19,1.25.63.31,1.56.63,2.5.63,17.21-1.25,34.1-1.88,51-2.19,12.2.63,24.4,1.88,36.61,3.75,0,0,.31,0,.63.31,3.44,2.5,6.57,5.63,9.39,9.07ZM980.36,174.39c-3.44-3.44-6.88-6.88-10.01-10.01-.94-1.56-.94-2.82,0-4.07,6.57-5.94,10.95-13.14,13.14-21.9.94-6.57,2.5-13.14,4.07-19.4.63-1.25,1.25-2.82,1.56-3.75,2.19-6.57,4.38-13.14,5.94-19.71.31-1.88,0-3.44-.94-5.01-.94-1.25-2.19-2.5-3.44-3.75-.94-.63-1.88-.94-3.13-.63-.94.31-2.5.63-3.75.63-1.56.63-3.13.63-4.38-.63-.94-1.56-.94-3.13-.63-4.69.94-4.38,3.44-7.82,7.82-9.7,1.56-1.56,3.44-2.82,5.63-3.75,2.82-.94,5.32-1.25,8.13-1.25,12.83,2.19,22.53,8.45,29.72,19.09,1.88,2.5,3.44,5.63,4.38,8.76.31,1.56,0,2.82-.94,4.07-1.56,2.5-3.13,5.01-5.01,7.51-.94,2.82-2.82,3.44-5.01,2.5-1.25.31-2.5.63-4.07.94l-15.33-1.25c-1.56.31-2.82.94-4.07,2.5-6.88,9.7-9.07,20.65-6.88,32.23.31.94,1.25,1.25,2.5,1.25,10.64-6.57,21.59-13.14,32.85-19.71,3.44-1.56,6.57-3.13,10.01-4.38h1.25c0,.31-.31.63-.63.94-1.56,1.88-3.75,3.44-5.94,5.01-4.38,2.82-8.76,6.26-12.83,10.01-1.88,1.88-2.82,4.38-2.82,6.57.31,10.01-1.56,19.4-6.26,27.85-1.56,3.75-3.44,7.2-5.94,10.32-1.56.94-3.13,1.56-5.01,1.25-2.19-.63-4.69-1.25-7.2-1.56-5.01-.94-9.07-3.13-12.83-6.26ZM1077.35,229.15c-.31-5.63-.63-11.26-.94-16.9,0-2.82-1.25-3.75-3.75-2.5-4.38,3.44-9.07,6.57-13.77,9.7-2.19.94-4.38,2.5-6.57,3.75-2.5,1.25-4.38,2.82-5.94,5.01-.31.94-.31,1.88.63,2.5,4.69,3.13,9.39,6.26,14.08,9.07.63.31,1.56.63,2.19.63,3.13-1.25,6.26-2.82,9.07-4.69,1.88-1.88,3.44-4.07,5.01-6.57ZM1059.82,136.22c3.44-4.07,6.88-8.13,10.01-12.51,1.56-4.38,2.5-9.07,3.44-13.77-.31-.31-.94-.31-1.56-.31l-12.83-6.57c-1.56-1.25-2.82-2.82-3.75-4.38l-1.25,6.57v1.56h-.63c1.88,9.7,3.13,19.09,4.69,28.47.31.31.94.63,1.88.94ZM1055.76,80.22c-1.88,1.56-2.5,3.75-1.88,6.57.31,1.88.31,4.07.31,6.26.63.63,1.25,1.25,1.88,1.25,1.56-.94,3.44-2.19,5.01-3.44,6.57-6.88,14.08-8.45,22.84-4.69,2.19,1.25,4.38,2.19,6.88,3.44-.31-2.82-.31-5.32-.31-7.82,0-1.56-.31-3.13-.94-4.69-2.19,0-3.44-.63-4.38-2.19-.63-1.88-1.25-3.13-2.19-4.69-.31-1.56,0-2.5.94-3.75,3.13-3.13,6.88-6.26,10.32-8.76.31-.63.31-1.25.31-1.88-1.56,0-3.13,0-4.38.31-1.25.31-2.19.94-2.82,1.56-.94.94-1.88,1.25-2.82,1.25-2.82-.31-5.32.63-7.51,2.19-2.19,1.88-4.38,3.13-7.2,4.07-1.25.63-2.19,1.56-2.82,2.82-1.88,2.5-3.75,5.01-5.63,7.51-1.56,1.56-3.44,3.13-5.63,4.69ZM1101.75,161.25c0-.31,0-.94.31-1.56-4.69-3.75-9.39-7.51-14.39-10.64-7.51-2.5-14.7-5.01-22.21-6.88-.94,0-2.19-.31-3.13-.63-1.25-.31-2.19-.31-3.13,0-.94.31-.94,1.25-.31,2.5,1.25,8.45,5.32,15.33,12.2,20.34.31.94.63,1.88.63,3.13.31.63.31.94,0,1.56.94.31,1.56.31,2.5.31.31-.63.63-1.25.94-1.88,0-1.25.31-2.19.94-3.13,5.94-5.32,12.83-6.26,20.02-3.13,1.88.31,3.75.31,5.63,0ZM1084.86,113.38c-.94.31-1.88.94-2.82,1.88-2.5,3.44-4.69,6.88-6.57,10.32,0,1.25.63,2.5,1.25,3.44,1.56-.63,3.44-1.25,4.69-2.19,1.56-1.25,2.82-2.19,4.07-3.75,1.56-1.25,2.19-2.82,2.82-4.69-.63-1.88-1.56-3.75-3.44-5.01ZM1119.58,154.06l.63.63c7.51-3.44,15.02-6.88,22.21-10.32,3.44-2.19,6.88-4.69,10.32-7.51,3.44-3.13,2.82-5.32-1.56-6.88-4.07-1.88-8.13-4.38-11.89-7.2l-8.13-5.01c-1.25,0-2.5.63-3.44,1.56-.31,1.88-.31,3.75,0,5.63-.94,6.26-1.88,12.51-3.13,18.77-.63.94-1.25,1.88-2.19,2.82-.94,2.19-1.88,4.69-2.82,7.51Z"/>
      <path class="cls-1" d="M1505.67,159.06c1.56,5.01.63,9.07-2.82,12.2-3.44,3.44-7.82,4.69-12.51,4.07-3.75-.31-7.51.31-10.95,1.25-1.88.31-4.07.31-6.26-.31-4.38-1.25-9.07-1.56-13.77-1.25-4.69.31-9.39.94-14.08,1.56-.94.31-1.88.63-2.5,1.25.63,1.88.31,3.44-1.25,4.07-1.88.63-3.13,1.25-4.38,1.56-2.82,1.88-5.94,3.13-9.07,4.69s-5.94,3.13-8.76,5.63c-1.25,1.56-2.19,3.75-2.5,5.94-.63,2.19-.94,4.69-.94,7.2,0,5.63.63,11.26.94,16.58.63,6.88,1.25,13.77,1.88,20.65-1.25,4.69-2.82,9.39-5.01,13.77-2.19,4.38-5.63,7.82-10.01,10.32-2.19.94-4.38,1.56-6.57,2.19-2.19.63-4.38,1.25-6.57,2.19-4.69,3.13-8.76,2.5-12.51-1.88-3.75-4.69-7.82-9.07-12.2-13.14-8.45-6.88-16.9-14.39-25.34-21.9-5.63-5.63-10.64-11.58-15.33-17.83-3.75-4.38-6.88-8.76-10.01-13.14,0-.63,0-.94-.63-.31-6.88.31-12.51-2.5-15.96-8.45-1.88-2.19-3.75-4.69-5.63-6.57-5.01-5.01-5.01-9.7.63-14.08,4.38-6.26,9.7-11.58,15.64-16.9,11.89-8.76,24.09-17.21,36.61-25.34.94-.63,1.56-.94,2.82-.94h2.5c-.31,1.25-.63,1.88-.94,2.5-3.75,3.13-7.2,6.26-10.64,9.07-4.38,4.69-8.76,9.07-13.14,13.45-.31,1.25-.63,2.5-.94,3.44.94.31,2.19.31,2.82,0l14.7-3.13c8.45-1.25,16.58-2.5,24.72-4.07,10.01-2.5,19.4-5.32,28.78-8.13,2.82-.31,5.32-.94,8.13-2.19,5.63-1.56,11.26-3.75,16.9-5.63,4.38-1.25,8.45-2.82,12.52-4.38,6.26-2.5,12.51-5.63,18.77-8.76,2.5-1.88,5.32-2.19,7.82-.94,6.26,3.13,12.51,6.57,18.77,9.7s11.58,6.88,16.27,11.58c4.38,4.07,7.82,9.07,10.01,14.39ZM1508.8,88.67c-.63.63-.94.94-1.56.94-4.07,0-7.51-.63-10.95-1.56-3.44-1.25-6.57-3.13-9.39-5.94-5.01-4.07-10.32-7.2-16.58-9.39-12.2-5.63-25.34-8.45-38.8-8.45-10.01.63-19.71,2.19-29.41,4.38-10.32,2.82-20.34,5.94-29.72,9.39-2.19,1.56-4.07,3.44-5.32,5.63-1.25,2.5-1.88,5.01-2.19,7.51,1.25,9.39,5.01,17.83,11.58,25.03.63.94,1.56,1.25,2.82.63,8.13-4.07,15.02-10.01,20.34-17.52.63-.94.94-2.19,1.56-3.44-1.25,0-2.5,0-3.44-.31h-2.82v-.31l-18.77,3.13h-1.56c0-.31.31-.94.94-1.56,5.94-5.94,12.2-11.26,19.4-15.64,8.45-4.69,16.9-8.76,25.66-12.51,4.69-2.19,9.07-1.56,12.83,1.56,2.19,1.88,4.38,3.75,6.57,5.63,3.44,2.19,5.94,5.63,7.82,9.39,1.88,4.07,2.5,8.13,2.19,12.51-.31.63-.94,1.25-1.56,1.88-7.51,9.07-15.33,18.46-23.47,27.85-1.56,2.82-3.75,5.32-5.94,7.2-1.56.94-3.44,1.88-5.63,2.19-2.19.63-4.07,1.56-5.63,3.13-2.19,1.25-4.38,1.56-6.88.94-2.5-.63-4.69.31-6.26,1.88h-.63c-3.44-.63-7.2-.63-10.95.31-4.07.94-7.82.31-11.26-1.56-5.63-4.07-10.32-8.76-14.39-14.08-4.07-5.32-6.88-11.26-8.45-17.83-.94-3.13-.94-6.57,0-10.01.94-3.13,1.88-6.57,2.5-9.7,0-1.25.31-2.19.63-2.82-.63.31-1.56.63-2.19.94-9.07,4.69-17.83,9.07-26.28,13.14-3.44,1.25-6.57,1.88-10.01,1.88-5.01.63-10.01,1.25-15.02,1.25-2.19-.63-4.07-1.25-5.94-1.88.94-1.88,1.88-3.75,2.82-5.32,1.88-2.5,4.07-4.69,6.57-7.2,2.82-1.56,5.94-3.13,9.39-3.75,5.32-2.19,10.64-4.07,15.96-6.26,2.82-.94,5.94-2.19,8.76-3.75,13.45-6.57,25.03-15.64,35.04-26.59,5.63-7.2,5.32-14.08-.94-20.96-2.19-2.5-1.88-4.69.63-6.57,1.88-1.56,3.75-3.13,5.94-4.07.63-.63,1.56-1.25,2.5-1.56,1.25-2.5,3.13-4.07,5.32-5.01,2.19-1.25,4.38-2.19,6.57-2.82,3.75-1.56,7.51-1.88,11.58-.94,12.2,4.69,19.4,13.45,21.59,26.59,1.56,6.57,1.25,13.45-1.25,20.34-.94,2.82,0,3.75,2.82,3.13,16.58-.94,33.48-1.56,50.69-1.88,3.44-.31,6.88.63,10.32,2.82,9.39,3.75,16.27,10.32,20.96,19.71.63,3.44.94,6.88.94,10.32ZM1454.36,151.24c-1.56-2.19-3.44-3.44-5.94-4.07-5.01-.31-10.01-.31-14.39.31-8.45.63-16.9,1.56-25.34,2.82-8.45.63-16.58,2.5-24.72,4.69-9.7,3.75-19.4,7.2-29.1,10.64-3.75.94-7.51,2.19-11.26,3.75-3.75,1.56-6.88,3.44-9.39,6.26-3.13,2.82-6.26,5.63-9.07,7.82-3.75,2.19-5.94,5.32-6.26,10.01.31.94,0,2.19-.94,2.82-1.25,2.19-.94,4.38.94,6.57,6.88,9.39,15.33,17.21,25.66,23.15,7.2,3.44,14.39,7.2,21.28,10.95,3.13,1.88,6.26,3.13,9.7,3.75,3.44.63,6.57-.31,9.39-2.5,1.56-1.88,2.82-3.75,4.07-5.63.63-3.44.63-6.57.63-10.01v-14.08c-.31-4.38-2.5-6.26-6.57-5.32h-6.88c-5.01.31-9.7,0-14.08-1.25-4.69-1.25-9.07-2.82-13.45-4.38-1.56-1.25-2.82-2.82-3.75-4.38,4.07-4.69,8.76-8.45,13.77-11.58,4.38-1.88,9.07-3.44,13.77-4.69,4.69-.94,9.39-2.5,14.08-4.07,10.64-3.75,20.65-9.07,29.72-15.96,5.01-5.01,10.32-5.01,15.33.31,1.88,1.88,3.44,3.44,5.01,5.32,1.25,1.88,2.5,1.88,4.38.63,3.44-2.82,6.88-5.32,10.64-8.13.94-.94,1.88-2.5,2.82-3.75ZM1368.63,245.1c-.63-.63-1.25-1.25-1.88-1.25-9.39-6.26-19.4-12.2-29.1-18.15-.94-.31-1.56-.94-1.56-1.25,0,.94,0,1.56.63,2.19,10.32,6.26,20.34,12.51,30.04,18.46h1.88ZM1415.87,58.94c-1.25-.63-2.82-1.25-4.07-1.56-2.19-.31-4.69-.63-7.2-1.25-2.19-.63-4.69-.31-6.88.63-1.56.63-2.82.94-4.69.63-9.7-1.25-18.77.63-27.22,5.63-8.45,4.69-17.52,9.07-26.91,13.77-.31.31-.94.63-1.56,1.25h2.19c13.77-4.07,27.53-7.82,41.3-11.58,10.64-2.5,21.28-4.69,31.6-6.57,1.25-.31,2.19-.63,3.44-.94ZM1448.41,170.64c-.31,0-.63,0-.94-.31-.94.31-1.88.31-3.13.31-.63.63-1.56,1.25-1.88,1.88.94.94,1.88,1.88,2.82,2.82,1.25-1.56,2.19-3.13,3.13-4.69Z"/>
    </g>
  </g>
</svg>